<svg width="162" height="175" viewBox="0 0 162 175" fill="none" xmlns="http://www.w3.org/2000/svg">
<g clip-path="url(#clip0_34_380)">
<path d="M6.41387 121.163C6.15859 120.514 6.03701 119.867 6.04915 119.222C6.07318 118.581 6.21372 117.974 6.47076 117.4C6.73634 116.822 7.10288 116.313 7.5704 115.873C8.04645 115.429 8.60459 115.081 9.2448 114.829C9.88502 114.577 10.5262 114.453 11.1684 114.457C11.8191 114.457 12.4343 114.58 13.0138 114.825C13.5933 115.07 14.11 115.419 14.564 115.871C15.0214 116.332 15.3777 116.887 15.633 117.535C15.9185 118.261 16.0459 118.935 16.0151 119.559C15.9844 120.182 15.8447 120.779 15.5962 121.35L14.2045 120.744C14.3906 120.366 14.4892 119.952 14.5002 119.504C14.5146 119.065 14.4227 118.593 14.2245 118.09C14.0498 117.646 13.8134 117.27 13.5154 116.964C13.2173 116.657 12.8694 116.425 12.4716 116.266C12.0858 116.112 11.668 116.04 11.2182 116.049C10.7685 116.058 10.3088 116.156 9.83936 116.34C9.36987 116.525 8.96734 116.767 8.63178 117.067C8.29622 117.366 8.03539 117.706 7.84929 118.085C7.67508 118.469 7.58337 118.874 7.57416 119.302C7.56495 119.729 7.64768 120.165 7.82235 120.609C8.03733 121.155 8.29981 121.584 8.6098 121.896C8.93168 122.213 9.2898 122.447 9.68416 122.597L9.07844 123.989C8.49893 123.744 7.9805 123.391 7.52315 122.93C7.06579 122.469 6.69604 121.88 6.41387 121.163Z" fill="#FBC000"/>
<path d="M12.877 133.996C12.5106 133.414 12.2773 132.802 12.1772 132.161C12.077 131.519 12.0975 130.889 12.2385 130.269C12.3873 129.644 12.6457 129.064 13.0135 128.529C13.3941 127.997 13.8755 127.548 14.4578 127.181C15.0401 126.815 15.6495 126.578 16.2861 126.47C16.9276 126.37 17.5558 126.386 18.1707 126.52C18.7983 126.656 19.3733 126.906 19.8956 127.271C20.4305 127.639 20.8812 128.114 21.2476 128.697C21.6141 129.279 21.8449 129.887 21.9402 130.521C22.0481 131.157 22.0277 131.788 21.8789 132.413C21.7378 133.032 21.477 133.608 21.0965 134.14C20.7286 134.675 20.2535 135.126 19.6712 135.492C19.0889 135.859 18.4731 136.095 17.8239 136.2C17.1873 136.308 16.5591 136.291 15.9393 136.15C15.3244 136.017 14.7494 135.766 14.2144 135.398C13.6844 135.038 13.2386 134.571 12.877 133.996ZM14.1435 133.167C14.4903 133.718 14.9175 134.121 15.4249 134.377C15.9371 134.639 16.4839 134.751 17.0653 134.71C17.6593 134.672 18.2436 134.472 18.8181 134.111C19.2452 133.842 19.5894 133.528 19.8508 133.168C20.1249 132.812 20.3119 132.429 20.4118 132.019C20.5194 131.604 20.5357 131.182 20.4604 130.753C20.3901 130.331 20.2255 129.914 19.9666 129.503C19.6246 128.959 19.1974 128.556 18.6852 128.293C18.1855 128.033 17.6426 127.919 17.0564 127.952C16.475 127.993 15.8971 128.194 15.3225 128.556C14.8955 128.824 14.5411 129.14 14.2592 129.501C13.99 129.866 13.803 130.249 13.6982 130.651C13.5984 131.06 13.5821 131.482 13.6496 131.917C13.7248 132.347 13.8894 132.763 14.1435 133.167Z" fill="#FBC000"/>
<path d="M20.1226 143.677L26.912 136.845L27.6928 137.621L25.8872 145.119L25.3796 144.614L32.8658 142.762L33.6466 143.538L26.8572 150.37L25.7348 149.254L30.5649 144.394L30.7508 144.714L25.1994 146.084L24.4186 145.308L25.7535 139.748L26.0752 139.932L21.245 144.793L20.1226 143.677Z" fill="#FBC000"/>
<path d="M32.7004 154.805L38.2113 146.905L39.5091 147.811L33.9982 155.711L32.7004 154.805Z" fill="#FBC000"/>
<path d="M41.1218 160.065L41.7438 158.761L44.029 159.851C44.6251 160.135 45.2079 160.256 45.7775 160.212C46.3553 160.173 46.877 159.984 47.3426 159.648C47.8204 159.306 48.2035 158.834 48.4918 158.229C48.7761 157.633 48.8985 157.046 48.8591 156.468C48.8196 155.89 48.6334 155.365 48.3004 154.891C47.9758 154.421 47.5195 154.046 46.9316 153.765L44.6464 152.675L45.2684 151.371L47.5909 152.479C48.2202 152.779 48.7506 153.169 49.1821 153.649C49.6176 154.121 49.9393 154.651 50.1472 155.238C50.3673 155.821 50.4627 156.43 50.4335 157.067C50.4083 157.695 50.2475 158.32 49.9513 158.941C49.6591 159.553 49.2748 160.071 48.7985 160.494C48.3222 160.918 47.7906 161.233 47.2036 161.441C46.6206 161.641 46.0066 161.724 45.3618 161.691C44.721 161.649 44.09 161.481 43.4691 161.184L41.1218 160.065ZM40.1406 159.597L44.2873 150.903L45.7155 151.584L41.5689 160.278L40.1406 159.597Z" fill="#FBC000"/>
<path d="M53.5206 165.422L60.0034 157.27L61.0608 157.576L62.1653 167.922L60.5263 167.448L59.7329 159.097L60.2881 159.258L55.1332 165.889L53.5206 165.422ZM55.9136 164.181L56.2959 162.859L61.1999 164.277L60.8176 165.599L55.9136 164.181Z" fill="#FBC000"/>
<path d="M70.8826 169.53C70.1272 169.435 69.5027 169.218 69.0092 168.878C68.5156 168.539 68.0927 168.079 67.7404 167.498L68.9393 166.567C69.1551 166.983 69.4314 167.323 69.768 167.587C70.1057 167.842 70.5567 168.005 71.121 168.076C71.6489 168.143 72.0813 168.086 72.4182 167.906C72.7643 167.728 72.9613 167.448 73.0094 167.066C73.0495 166.747 73.0002 166.477 72.8616 166.256C72.7229 166.036 72.5251 165.844 72.2681 165.683C72.0213 165.513 71.7404 165.357 71.4253 165.216C71.1205 165.067 70.8123 164.908 70.5007 164.739C70.1993 164.562 69.9247 164.357 69.6768 164.122C69.438 163.889 69.2568 163.602 69.133 163.263C69.0093 162.924 68.9783 162.509 69.0401 162.017C69.1111 161.453 69.3078 160.992 69.63 160.635C69.9626 160.27 70.3786 160.013 70.8783 159.863C71.3779 159.713 71.9189 159.675 72.5014 159.748C73.1295 159.827 73.6737 160.021 74.1343 160.328C74.604 160.637 74.9695 161.002 75.2309 161.423L74.032 162.354C73.7979 162.01 73.5398 161.747 73.2578 161.563C72.986 161.372 72.659 161.252 72.2767 161.204C71.8034 161.145 71.4182 161.193 71.1212 161.35C70.8332 161.508 70.6674 161.76 70.6239 162.106C70.5873 162.397 70.6394 162.644 70.7803 162.846C70.9224 163.04 71.1174 163.217 71.3653 163.378C71.6235 163.53 71.905 163.681 72.2098 163.831C72.5237 163.981 72.8314 164.145 73.1328 164.321C73.4432 164.499 73.7167 164.714 73.9532 164.965C74.1999 165.209 74.384 165.51 74.5054 165.867C74.6269 166.224 74.6556 166.658 74.5915 167.167C74.4838 168.023 74.0936 168.663 73.4209 169.087C72.7572 169.512 71.9111 169.659 70.8826 169.53Z" fill="#FBC000"/>
<path d="M89.0211 165.587L88.85 164.291L91.2646 163.973C91.7466 163.909 92.1032 163.737 92.3346 163.457C92.5738 163.166 92.664 162.798 92.6052 162.352C92.5523 161.952 92.376 161.633 92.0763 161.395C91.7765 161.157 91.3857 161.07 90.9037 161.133L88.4754 161.454L88.2954 160.09L90.7918 159.76C91.392 159.681 91.9357 159.734 92.4228 159.92C92.9088 160.096 93.3021 160.377 93.6029 160.763C93.9116 161.139 94.1007 161.59 94.1703 162.118C94.2436 162.673 94.1799 163.171 93.9793 163.614C93.7877 164.056 93.4796 164.42 93.0549 164.708C92.6302 164.995 92.1177 165.178 91.5175 165.258L89.0211 165.587ZM88.4782 169.781L87.2177 160.232L88.7865 160.025L90.047 169.574L88.4782 169.781ZM93.7166 169.09L89.827 165.384L91.2164 164.659L95.6947 168.828L93.7166 169.09Z" fill="#FBC000"/>
<path d="M100.967 167.71L101.85 157.332L102.9 157.001L109.55 165.004L107.922 165.517L102.637 159.003L103.188 158.829L102.568 167.205L100.967 167.71ZM102.272 165.35L101.858 164.038L106.727 162.503L107.141 163.815L102.272 165.35ZM101.328 156.501L100.465 156.051L101.471 153.383L102.938 154.146L101.328 156.501Z" fill="#FBC000"/>
<path d="M114.811 158.666L114.174 157.446L116.309 156.332C116.602 156.179 116.828 155.988 116.989 155.76C117.153 155.519 117.245 155.259 117.264 154.979C117.28 154.692 117.211 154.402 117.058 154.109C116.906 153.816 116.709 153.598 116.468 153.455C116.224 153.303 115.958 153.23 115.671 153.235C115.387 153.227 115.099 153.3 114.807 153.453L112.672 154.567L112.035 153.347L114.243 152.195C114.78 151.914 115.317 151.774 115.855 151.773C116.4 151.767 116.899 151.9 117.351 152.171C117.811 152.438 118.181 152.84 118.461 153.377C118.741 153.914 118.859 154.447 118.815 154.977C118.779 155.503 118.603 155.988 118.287 156.433C117.978 156.873 117.556 157.233 117.019 157.513L114.811 158.666ZM115.528 162.389L111.072 153.85L112.474 153.118L116.931 161.657L115.528 162.389Z" fill="#FBC000"/>
<path d="M126.893 155.753L121.339 147.883L122.632 146.971L128.186 154.841L126.893 155.753Z" fill="#FBC000"/>
<path d="M134.651 149.744L133.655 148.697L135.489 146.952C135.968 146.497 136.289 145.995 136.451 145.448C136.621 144.894 136.632 144.34 136.483 143.784C136.335 143.216 136.03 142.69 135.569 142.204C135.114 141.726 134.609 141.402 134.055 141.232C133.502 141.063 132.944 141.049 132.382 141.191C131.827 141.326 131.314 141.618 130.842 142.067L129.008 143.812L128.012 142.765L129.876 140.992C130.381 140.511 130.935 140.155 131.538 139.924C132.134 139.685 132.744 139.574 133.366 139.59C133.989 139.592 134.593 139.721 135.177 139.976C135.755 140.224 136.281 140.597 136.755 141.095C137.223 141.587 137.569 142.131 137.794 142.727C138.02 143.323 138.124 143.933 138.109 144.555C138.087 145.171 137.945 145.774 137.684 146.364C137.416 146.948 137.033 147.477 136.535 147.951L134.651 149.744ZM133.863 150.493L127.224 143.514L128.371 142.424L135.01 149.402L133.863 150.493Z" fill="#FBC000"/>
<path d="M144.158 139.903L138.665 131.053L139.309 130.16L149.423 132.605L148.425 133.988L140.294 131.923L140.633 131.454L145.14 138.541L144.158 139.903ZM143.795 137.231L142.679 136.426L145.666 132.286L146.782 133.091L143.795 137.231Z" fill="#FBC000"/>
<path d="M153.831 124.844C153.493 125.527 153.084 126.046 152.601 126.401C152.119 126.756 151.545 127.005 150.881 127.147L150.395 125.709C150.858 125.642 151.27 125.492 151.63 125.261C151.981 125.025 152.283 124.653 152.535 124.143C152.771 123.666 152.859 123.239 152.8 122.861C152.745 122.476 152.545 122.198 152.199 122.027C151.911 121.885 151.641 121.843 151.386 121.902C151.132 121.96 150.887 122.085 150.65 122.274C150.408 122.452 150.169 122.666 149.933 122.918C149.692 123.157 149.441 123.396 149.179 123.635C148.913 123.862 148.629 124.054 148.326 124.211C148.028 124.36 147.698 124.438 147.337 124.444C146.976 124.449 146.573 124.343 146.129 124.123C145.619 123.871 145.248 123.534 145.017 123.113C144.781 122.679 144.674 122.202 144.696 121.681C144.719 121.159 144.86 120.636 145.12 120.109C145.4 119.542 145.761 119.091 146.203 118.757C146.648 118.414 147.113 118.188 147.597 118.079L148.083 119.517C147.682 119.626 147.348 119.783 147.082 119.99C146.812 120.184 146.592 120.453 146.421 120.799C146.21 121.226 146.13 121.606 146.181 121.938C146.235 122.262 146.419 122.501 146.732 122.656C146.995 122.786 147.245 122.817 147.483 122.751C147.712 122.68 147.943 122.554 148.176 122.372C148.405 122.178 148.64 121.962 148.881 121.723C149.126 121.475 149.381 121.238 149.647 121.011C149.917 120.776 150.209 120.588 150.524 120.447C150.835 120.294 151.18 120.219 151.557 120.221C151.935 120.223 152.354 120.338 152.814 120.566C153.587 120.948 154.064 121.526 154.244 122.301C154.428 123.067 154.29 123.915 153.831 124.844Z" fill="#FBC000"/>
<path d="M78.47 102.49C54.9 102.49 31.89 100.89 31.89 81.72C31.89 63.78 52.79 49.19 78.47 49.19C104.15 49.19 125.05 63.78 125.05 81.72C125.05 100.89 102.04 102.49 78.47 102.49ZM78.47 53.42C55.12 53.42 36.12 66.11 36.12 81.72C36.12 95.55 51.65 98.26 78.47 98.26C105.29 98.26 120.82 95.55 120.82 81.72C120.82 66.12 101.82 53.42 78.47 53.42Z" fill="#E64748"/>
<path d="M71.13 113.26C56.2 113.26 35.18 111.59 30.4 102.61C28.98 99.95 28.66 97.34 29.46 94.85C30.83 90.54 35.13 88.35 35.31 88.26L37.2 92.05C37.2 92.05 34.3 93.56 33.48 96.16C33.05 97.53 33.26 98.99 34.13 100.62C37.17 106.31 53.25 109.51 76.05 108.97H80.46C103.35 109.51 119.4 106.32 122.43 100.62C123.3 98.99 123.51 97.53 123.08 96.16C122.27 93.56 119.38 92.06 119.35 92.04L121.25 88.26C121.43 88.35 125.73 90.54 127.1 94.85C127.89 97.34 127.57 99.95 126.16 102.61C120.81 112.64 95.2 113.55 80.4 113.2H76.09C74.54 113.24 72.87 113.26 71.11 113.26H71.13Z" fill="#E64748"/>
<path d="M38.87 115.27C39.9 115.03 40.96 114.51 41.96 114.83C42.73 115.07 43.26 115.75 43.82 116.33C46.28 118.9 50.12 120.06 53.59 119.29C54.72 119.04 55.82 118.61 56.97 118.63C58.37 118.65 59.65 119.34 60.96 119.85C65.34 121.54 70.49 121.13 74.55 118.75C79.28 121.9 85.92 121.89 90.64 118.72C93.81 121.3 98.47 121.9 102.2 120.2C103.56 119.58 104.8 118.68 106.22 118.22C108.96 117.33 111.94 118.17 114.83 118.08C117.71 117.99 121.09 116.17 120.92 113.29C123.7 113.53 126.55 111.85 127.68 109.29C128.81 106.74 128.14 103.5 126.09 101.6C119.01 107.42 110 110.5 100.92 111.77C91.84 113.03 82.62 112.59 73.47 112.05C67.91 111.72 62.34 111.35 56.87 110.3C50.78 109.13 44.89 107.14 38.88 105.64C37.01 105.17 32.61 101.44 31.03 103.1C29.48 104.72 29.75 110.23 30.78 112.07C32.04 114.31 36.37 115.86 38.88 115.27H38.87Z" fill="#E64748"/>
<path d="M82.53 140.55H78.64C70.81 140.55 40.29 138.9 34.07 130.81C28.33 123.35 34.12 112.07 34.37 111.6L38.12 113.57C38.07 113.66 33.34 122.92 37.42 128.23C41.28 133.24 64.02 136.32 78.64 136.32H82.53C95.9 136.32 116.6 133.51 120.66 128.23C124.75 122.92 120.01 113.66 119.96 113.56L123.71 111.6C123.96 112.08 129.75 123.35 124.01 130.81C117.89 138.76 91.34 140.55 82.53 140.55Z" fill="#E64748"/>
<path d="M99.4 70.48C101.051 70.48 102.39 69.1413 102.39 67.49C102.39 65.8387 101.051 64.5 99.4 64.5C97.7487 64.5 96.41 65.8387 96.41 67.49C96.41 69.1413 97.7487 70.48 99.4 70.48Z" fill="#E64748"/>
<path d="M107.62 74.22C107.62 75.46 106.62 76.46 105.38 76.46C104.14 76.46 103.14 75.46 103.14 74.22C103.14 72.98 104.14 71.98 105.38 71.98C106.62 71.98 107.62 72.98 107.62 74.22Z" fill="#E64748"/>
<path d="M107.62 70.11C108.239 70.11 108.74 69.6085 108.74 68.99C108.74 68.3714 108.239 67.87 107.62 67.87C107.001 67.87 106.5 68.3714 106.5 68.99C106.5 69.6085 107.001 70.11 107.62 70.11Z" fill="#E64748"/>
<path d="M37.7484 19.2552L36.517 29.7909L36.8748 29.7576C37.7992 29.6717 38.6268 29.3542 39.3578 28.805C40.0859 28.2261 40.6986 27.5375 41.1959 26.7394C41.6904 25.9115 42.0438 25.0215 42.256 24.0694C42.4953 23.0848 42.5734 22.1451 42.4903 21.2506C42.4349 20.6542 42.2927 20.096 42.064 19.5759C41.8622 19.0232 41.5332 18.5576 41.0769 18.1789C40.6207 17.8002 40.0088 17.5263 39.2411 17.357C38.5006 17.1552 37.5637 17.1069 36.4306 17.2122C34.8801 17.3563 33.4426 17.7456 32.118 18.38C30.7907 18.9846 29.6496 19.8124 28.6947 20.8636C27.7668 21.8822 27.0521 23.0915 26.5506 24.4915C26.079 25.8888 25.9221 27.4372 26.0801 29.1368C26.13 29.6736 26.2014 30.1181 26.2943 30.4703C26.3844 30.7928 26.4703 31.0705 26.5521 31.3035C26.6312 31.5067 26.7074 31.6801 26.7809 31.8236C26.8815 31.9346 26.9508 32.0334 26.9889 32.1201C25.498 32.2587 24.2925 32.0699 23.3724 31.554C22.4792 31.0054 21.962 29.9707 21.8207 28.45C21.6766 26.8995 21.9867 25.3819 22.7509 23.8973C23.5125 22.3829 24.5874 21.0047 25.9758 19.7629C27.394 18.5183 29.0417 17.4779 30.9189 16.6418C32.7961 15.8056 34.7634 15.292 36.8209 15.1007C38.431 14.9511 39.8668 15.0282 41.1281 15.332C42.3867 15.606 43.4504 16.0485 44.3193 16.6595C45.2151 17.2379 45.8971 17.9414 46.3651 18.7701C46.8629 19.5961 47.1548 20.4712 47.2407 21.3956C47.3654 22.7374 47.0768 24.1627 46.3749 25.6716C45.6703 27.1506 44.5693 28.4109 43.0721 29.4523C44.3252 29.6667 45.1978 30.157 45.6901 30.9233C46.2094 31.657 46.5176 32.5457 46.6146 33.5893C46.7005 34.5137 46.6727 35.5088 46.5311 36.5746C46.4194 37.6376 46.2616 38.6899 46.0576 39.7314C45.8807 40.7404 45.7159 41.7181 45.5633 42.6646C45.4405 43.6084 45.4096 44.4083 45.4705 45.0643C45.5398 45.8097 45.7485 46.437 46.0966 46.946C46.4744 47.4522 46.9415 47.7848 47.4976 47.9436C46.5683 48.3006 45.7365 48.5734 45.0022 48.762C44.2976 48.9478 43.677 49.0656 43.1403 49.1155C42.4246 49.182 41.8199 49.148 41.3262 49.0134C40.8623 48.8761 40.4837 48.6857 40.1904 48.4423C39.9242 48.1663 39.7297 47.8535 39.607 47.504C39.4842 47.1545 39.4063 46.8009 39.373 46.443C39.3037 45.6976 39.3426 44.8218 39.4897 43.8156C39.6638 42.7768 39.8352 41.7083 40.0038 40.6099C40.2022 39.5087 40.3722 38.4252 40.5137 37.3594C40.6851 36.2908 40.7306 35.3242 40.6502 34.4595C40.5671 33.5649 40.3054 32.8524 39.8651 32.3219C39.4248 31.7913 38.7126 31.5718 37.7286 31.6633C37.4901 31.6854 37.2529 31.7225 37.0172 31.7745C36.7814 31.8265 36.5172 31.8962 36.2245 31.9835L34.2136 49.1783L27.7729 49.7769L31.2119 20.765L37.7484 19.2552ZM69.5892 23.3335L67.7823 38.8401C67.7101 39.3581 67.6948 39.8407 67.7364 40.288C67.7946 40.9142 67.9839 41.3327 68.3042 41.5435C68.6246 41.7543 69.0978 41.8307 69.724 41.7725C70.5887 41.6921 71.2846 41.2515 71.8117 40.4506C72.3686 39.6469 72.7584 38.6633 72.9811 37.4997L74.8596 37.3251C74.4025 39.2023 73.8227 40.7299 73.1201 41.908C72.4446 43.0535 71.7171 43.9632 70.9376 44.6372C70.1852 45.2785 69.4297 45.7247 68.671 45.9757C67.9124 46.2266 67.2349 46.3798 66.6385 46.4353C65.3563 46.5544 64.2944 46.2922 63.4526 45.6486C62.6406 45.0023 62.0949 43.9853 61.8156 42.5977C61.335 43.5747 60.8228 44.3742 60.2791 44.9962C59.7624 45.5856 59.2347 46.0557 58.6959 46.4065C58.157 46.7574 57.6234 47.0025 57.095 47.1418C56.5693 47.311 56.068 47.4177 55.5909 47.4621C54.2491 47.5868 53.0772 47.2746 52.0752 46.5256C51.0705 45.7468 50.4808 44.4181 50.3062 42.5396C50.2314 41.7345 50.2606 40.7543 50.3938 39.5991L52.1009 24.959L58.5416 24.3603L56.7346 39.8669C56.6867 40.3225 56.6808 40.7441 56.7168 41.1317C56.764 41.6386 56.8936 42.0627 57.1058 42.4039C57.3478 42.7423 57.7222 42.888 58.2291 42.8408C59.0938 42.7605 59.7897 42.3198 60.3168 41.519C60.8439 40.7181 61.2188 39.7358 61.4415 38.5723L63.1485 23.9322L69.5892 23.3335ZM79.0847 37.6994C79.226 39.2201 79.5886 40.209 80.1725 40.666C80.7535 41.0932 81.5808 41.2569 82.6542 41.1572C83.5488 41.074 84.3428 40.8799 85.0363 40.5749C85.7297 40.2698 86.3715 39.8944 86.9617 39.4485C87.5491 38.9729 88.1011 38.4403 88.6177 37.851C89.1316 37.2318 89.6428 36.5827 90.1511 35.9039L91.6718 35.7626C91.1426 36.8644 90.5212 37.9447 89.8076 39.0036C89.094 40.0624 88.2663 41.0265 87.3245 41.896C86.3827 42.7655 85.3228 43.4957 84.1446 44.0864C82.9664 44.6771 81.6318 45.0417 80.1409 45.1803C78.0238 45.3771 76.2729 44.9834 74.8882 43.9993C73.5333 43.0124 72.738 41.2517 72.5025 38.7172C72.4221 37.8525 72.4201 36.8601 72.4965 35.7402C72.5728 34.6203 72.7359 33.4623 72.9856 32.2661C73.2652 31.0672 73.6668 29.887 74.1904 28.7255C74.7113 27.5342 75.3774 26.4498 76.1888 25.4721C77.0002 24.4944 77.9773 23.6818 79.1202 23.0342C80.263 22.3866 81.5948 21.9921 83.1155 21.8508C84.0995 21.7593 84.9157 21.8038 85.5641 21.9841C86.2422 22.1617 86.7796 22.4426 87.1762 22.8268C87.5999 23.1784 87.8949 23.6021 88.0613 24.0979C88.2575 24.591 88.3819 25.1208 88.4346 25.6873C88.551 26.9397 88.3772 28.1438 87.9132 29.2998C87.4492 30.4557 86.7789 31.4954 85.9023 32.419C85.023 33.3128 83.9807 34.0713 82.7754 34.6947C81.5972 35.2854 80.3414 35.6878 79.0079 35.902C79.0085 36.2328 79.0078 36.5486 79.0057 36.8496C79.0334 37.1478 79.0597 37.431 79.0847 37.6994ZM84.9823 25.918C84.9296 25.3514 84.7986 24.9125 84.5892 24.6011C84.4096 24.2869 84.1111 24.1493 83.6937 24.1881C83.1271 24.2407 82.6004 24.5604 82.1136 25.147C81.6268 25.7336 81.185 26.4814 80.7883 27.3905C80.3888 28.2697 80.0451 29.2641 79.7572 30.3736C79.4992 31.4803 79.3021 32.5964 79.1661 33.7218C80.0253 33.5818 80.8232 33.2671 81.5596 32.7775C82.3259 32.2853 82.9768 31.6834 83.5121 30.972C84.0475 30.2606 84.4404 29.4721 84.6908 28.6067C84.9683 27.7088 85.0654 26.8125 84.9823 25.918ZM111.368 10.4277L108.469 35.0585C108.397 35.5765 108.382 36.0591 108.423 36.5064C108.482 37.1326 108.671 37.5511 108.991 37.7619C109.312 37.9728 109.785 38.0491 110.411 37.9909C111.276 37.9105 111.972 37.4699 112.499 36.669C113.056 35.8653 113.445 34.8817 113.668 33.7182L115.547 33.5436C115.09 35.4207 114.508 36.9334 113.803 38.0816C113.125 39.1973 112.395 40.0772 111.612 40.7214C110.857 41.3329 110.099 41.7493 109.337 41.9704C108.576 42.1916 107.897 42.3299 107.301 42.3853C106.078 42.4989 105.049 42.2638 104.212 41.6798C103.406 41.0931 102.854 40.167 102.556 38.9014C102.275 39.4388 101.934 39.9818 101.534 40.5302C101.134 41.0787 100.669 41.5731 100.138 42.0134C99.6375 42.4509 99.0702 42.8194 98.4364 43.119C97.8025 43.4185 97.0831 43.6056 96.278 43.6805C95.5027 43.7525 94.7462 43.7025 94.0084 43.5305C93.2976 43.3259 92.6326 42.9666 92.0134 42.4527C91.3942 41.9389 90.8791 41.2499 90.4679 40.3858C90.054 39.4919 89.7847 38.3741 89.66 37.0323C89.5657 36.0185 89.569 34.9204 89.6696 33.7381C89.7702 32.5558 89.9752 31.3638 90.2846 30.1621C90.594 28.9604 91.0119 27.7937 91.5383 26.662C92.0647 25.5304 92.7229 24.5218 93.5128 23.6364C94.2999 22.7211 95.1931 21.9764 96.1924 21.4023C97.2187 20.7956 98.3879 20.4313 99.6999 20.3094C100.058 20.2761 100.433 20.2713 100.826 20.2949C101.247 20.2859 101.644 20.3543 102.018 20.4999C102.39 20.6157 102.71 20.8266 102.979 21.1324C103.276 21.4056 103.478 21.8079 103.588 22.339L104.832 11.9375L111.368 10.4277ZM101.344 22.9536C100.39 23.0423 99.5668 23.5699 98.8747 24.5365C98.1798 25.4733 97.6236 26.6077 97.206 27.9398C96.7857 29.242 96.493 30.6227 96.3278 32.0816C96.1599 33.5108 96.1244 34.7472 96.2214 35.7908C96.3018 36.6556 96.4387 37.3196 96.6321 37.7828C96.8526 38.2134 97.0783 38.5383 97.3092 38.7575C97.5671 38.944 97.8181 39.056 98.0622 39.0935C98.3334 39.0984 98.5733 39.0911 98.782 39.0717C99.11 39.0412 99.446 38.9348 99.79 38.7525C100.161 38.5375 100.51 38.2494 100.837 37.8882C101.165 37.5269 101.44 37.0953 101.665 36.5932C101.886 36.0614 102.04 35.4605 102.129 34.7907L103.34 24.5275C103.315 24.2592 103.148 23.9138 102.838 23.4915C102.558 23.0664 102.06 22.8871 101.344 22.9536ZM133.819 17.3638L132.012 32.8704C131.94 33.3883 131.925 33.871 131.966 34.3183C132.025 34.9444 132.214 35.3629 132.534 35.5738C132.855 35.7846 133.328 35.8609 133.954 35.8027C134.342 35.7667 134.664 35.6766 134.921 35.5324C134.695 36.3353 134.459 37.034 134.214 37.6282C133.998 38.2197 133.744 38.7245 133.452 39.1426C133.158 39.5309 132.795 39.8353 132.364 40.0558C131.964 40.2735 131.465 40.4101 130.869 40.4655C129.646 40.5791 128.614 40.3142 127.772 39.6706C126.957 38.9944 126.4 38.0086 126.099 36.7133C125.818 37.2507 125.477 37.7936 125.077 38.3421C124.677 38.8906 124.212 39.385 123.681 39.8252C123.18 40.2628 122.613 40.6313 121.979 40.9308C121.345 41.2303 120.626 41.4175 119.821 41.4923C119.046 41.5644 118.289 41.5144 117.551 41.3424C116.841 41.1377 116.176 40.7785 115.556 40.2646C114.937 39.7507 114.422 39.0617 114.011 38.1977C113.597 37.3038 113.328 36.1859 113.203 34.8441C113.109 33.8303 113.112 32.7322 113.213 31.5499C113.313 30.3676 113.518 29.1756 113.828 27.9739C114.137 26.7722 114.555 25.6055 115.081 24.4739C115.608 23.3422 116.266 22.3337 117.056 21.4482C117.843 20.5329 118.736 19.7882 119.735 19.2141C120.762 18.6075 121.931 18.2432 123.243 18.1212C123.601 18.088 123.976 18.0831 124.369 18.1067C124.79 18.0978 125.172 18.1675 125.517 18.3159C125.888 18.4317 126.209 18.6426 126.478 18.9484C126.774 19.2216 126.99 19.6076 127.127 20.1062L127.379 17.9624L133.819 17.3638ZM124.887 20.7654C123.933 20.8541 123.11 21.3818 122.418 22.3484C121.723 23.2851 121.167 24.4196 120.749 25.7516C120.329 27.0539 120.036 28.4345 119.871 29.8935C119.703 31.3227 119.667 32.5591 119.764 33.6027C119.845 34.4674 119.982 35.1314 120.175 35.5946C120.396 36.0253 120.621 36.3502 120.852 36.5693C121.11 36.7559 121.361 36.8679 121.605 36.9053C121.876 36.9102 122.116 36.903 122.325 36.8836C122.653 36.8531 122.989 36.7467 123.333 36.5643C123.704 36.3494 124.053 36.0613 124.38 35.7C124.708 35.3388 124.983 34.9071 125.207 34.4051C125.429 33.8732 125.583 33.2724 125.672 32.6025L126.879 22.2946C126.868 22.1754 126.809 22.0304 126.703 21.8598C126.624 21.6566 126.502 21.4725 126.336 21.3075C126.2 21.1397 126.007 21.0072 125.758 20.9101C125.535 20.7804 125.245 20.7322 124.887 20.7654Z" fill="#E64748"/>
<path d="M137.21 54.41L137.74 56.24C138.47 58.76 140.44 60.72 142.96 61.46L144.79 61.99C145.87 62.3 145.87 63.83 144.79 64.14L142.96 64.67C140.44 65.4 138.48 67.37 137.74 69.89L137.21 71.72C136.9 72.8 135.37 72.8 135.06 71.72L134.53 69.89C133.8 67.37 131.83 65.41 129.31 64.67L127.48 64.14C126.4 63.83 126.4 62.3 127.48 61.99L129.31 61.46C131.83 60.73 133.79 58.76 134.53 56.24L135.06 54.41C135.37 53.33 136.9 53.33 137.21 54.41Z" fill="#FBC000"/>
<path d="M15.1 81.27L15.61 83.01C16.3 85.39 18.17 87.26 20.55 87.95L22.29 88.46C23.31 88.76 23.31 90.2 22.29 90.5L20.55 91.01C18.17 91.7 16.3 93.57 15.61 95.95L15.1 97.69C14.8 98.71 13.36 98.71 13.06 97.69L12.55 95.95C11.86 93.57 9.98998 91.7 7.60998 91.01L5.86998 90.5C4.84998 90.2 4.84998 88.76 5.86998 88.46L7.60998 87.95C9.98998 87.26 11.86 85.39 12.55 83.01L13.06 81.27C13.36 80.25 14.8 80.25 15.1 81.27Z" fill="#FBC000"/>
<path d="M143.05 82.76L143.39 83.92C143.85 85.51 145.1 86.75 146.68 87.21L147.84 87.55C148.52 87.75 148.52 88.71 147.84 88.91L146.68 89.25C145.09 89.71 143.85 90.96 143.39 92.54L143.05 93.7C142.85 94.38 141.89 94.38 141.69 93.7L141.35 92.54C140.89 90.95 139.64 89.71 138.06 89.25L136.9 88.91C136.22 88.71 136.22 87.75 136.9 87.55L138.06 87.21C139.65 86.75 140.89 85.5 141.35 83.92L141.69 82.76C141.89 82.08 142.85 82.08 143.05 82.76Z" fill="#E64748"/>
<path d="M57.9417 15.7419L57.2795 4.5951L58.7893 4.50541L59.4515 15.6522L57.9417 15.7419ZM58.9697 15.6808L58.8876 14.2995L64.8626 13.9446L64.9446 15.3259L58.9697 15.6808ZM70.9164 15.1323C70.1241 15.1793 69.3766 15.0787 68.6742 14.8303C67.9711 14.5712 67.3469 14.1945 66.8018 13.7004C66.256 13.1955 65.8179 12.6037 65.4874 11.9249C65.1677 11.2454 64.9843 10.5095 64.9372 9.71711C64.8895 8.91403 64.9845 8.16157 65.2221 7.45973C65.4699 6.74654 65.8298 6.11266 66.3019 5.55808C66.7847 5.00286 67.3548 4.56066 68.0122 4.23147C68.6804 3.90165 69.4106 3.7132 70.203 3.66612C70.9954 3.61905 71.7374 3.72002 72.4292 3.96906C73.1317 4.21745 73.7555 4.58872 74.3006 5.08287C74.8458 5.57702 75.2836 6.1635 75.614 6.84233C75.9445 7.52116 76.1336 8.26212 76.1813 9.0652C76.2284 9.85758 76.128 10.6104 75.8803 11.3235C75.6325 12.0367 75.2672 12.6709 74.7844 13.2261C74.3123 13.7807 73.7426 14.2283 73.0751 14.5688C72.4177 14.898 71.6981 15.0858 70.9164 15.1323ZM70.7984 13.6886C71.6015 13.6409 72.2921 13.4172 72.8701 13.0175C73.4582 12.6065 73.9098 12.0692 74.225 11.4058C74.5395 10.7316 74.672 9.97691 74.6224 9.1417C74.5855 8.52065 74.45 7.95918 74.2161 7.4573C73.9814 6.9447 73.6706 6.50648 73.2837 6.14263C72.8967 5.77878 72.4509 5.50976 71.9463 5.33557C71.441 5.15068 70.8885 5.07605 70.2889 5.11167C69.4965 5.15875 68.806 5.38245 68.2172 5.78278C67.6392 6.18247 67.1926 6.71404 66.8775 7.3775C66.573 8.04033 66.4455 8.78934 66.4952 9.62455C66.5321 10.2456 66.6628 10.8181 66.8873 11.342C67.1219 11.8546 67.4274 12.2932 67.8036 12.6577C68.19 13.0108 68.6358 13.2798 69.1411 13.4647C69.6571 13.649 70.2095 13.7236 70.7984 13.6886ZM81.3792 14.5106C80.5012 14.5628 79.7421 14.4467 79.102 14.1624C78.4619 13.8781 77.8827 13.445 77.3646 12.8633L78.3315 11.7743C78.7141 12.2459 79.1433 12.5965 79.619 12.8261C80.094 13.045 80.6689 13.1344 81.3435 13.0944C82.0073 13.0549 82.5288 12.8789 82.9078 12.5662C83.2975 12.2529 83.4774 11.8447 83.4475 11.3414C83.4227 10.9238 83.3063 10.5922 83.0983 10.3467C82.8903 10.1012 82.6156 9.90794 82.2741 9.76704C81.9427 9.6148 81.5804 9.48588 81.1873 9.38029C80.7935 9.26399 80.3995 9.14234 80.0051 9.01533C79.6101 8.87762 79.2452 8.70587 78.9107 8.50009C78.5754 8.28361 78.295 7.99402 78.0692 7.63133C77.8542 7.26801 77.7299 6.8026 77.6962 6.23508C77.6586 5.60332 77.7767 5.05903 78.0505 4.6022C78.3343 4.13402 78.7315 3.76656 79.2422 3.49982C79.763 3.22173 80.3553 3.06297 81.0192 3.02352C81.7473 2.98027 82.409 3.08601 83.0044 3.34077C83.5992 3.58482 84.0923 3.92625 84.4837 4.36506L83.5168 5.45407C83.162 5.08831 82.7861 4.82052 82.3892 4.65068C82.003 4.4802 81.5636 4.4096 81.071 4.43886C80.4714 4.47449 80.0028 4.63664 79.6654 4.92533C79.3273 5.20331 79.1722 5.57787 79.2002 6.04901C79.2225 6.42379 79.337 6.72323 79.5437 6.94735C79.7605 7.16013 80.0343 7.33728 80.3651 7.47882C80.6959 7.62035 81.0581 7.74926 81.4519 7.86556C81.8557 7.97052 82.2551 8.09185 82.6502 8.22957C83.0452 8.36728 83.4106 8.54974 83.7465 8.77693C84.0824 9.00413 84.3584 9.31009 84.5747 9.69483C84.8011 10.0682 84.9317 10.5494 84.9667 11.1383C85.0252 12.1234 84.7284 12.9147 84.0762 13.5123C83.4347 14.1091 82.5357 14.4419 81.3792 14.5106Z" fill="#FBC000"/>
</g>
<defs>
<clipPath id="clip0_34_380">
<rect width="161.8" height="174.8" fill="white"/>
</clipPath>
</defs>
</svg>
